<?xml version="1.0" encoding="utf-8"?>
<!-- Generator: Adobe Illustrator 16.0.2, SVG Export Plug-In . SVG Version: 6.00 Build 0)  -->
<!DOCTYPE svg PUBLIC "-//W3C//DTD SVG 1.1//EN" "http://www.w3.org/Graphics/SVG/1.1/DTD/svg11.dtd">
<svg version="1.1" id="Layer_1" xmlns="http://www.w3.org/2000/svg" xmlns:xlink="http://www.w3.org/1999/xlink" x="0px" y="0px"
	 width="179.392px" height="75.676px" viewBox="0 0 179.392 75.676" enable-background="new 0 0 179.392 75.676"
	 xml:space="preserve">
<g display="none">
	<linearGradient id="SVGID_1_" gradientUnits="userSpaceOnUse" x1="8.0903" y1="36.9595" x2="176.8242" y2="36.9595">
		<stop  offset="0" style="stop-color:#22B573"/>
		<stop  offset="1" style="stop-color:#00A99D"/>
	</linearGradient>
	<path display="inline" fill="url(#SVGID_1_)" d="M169.324,3.459c-5,0-9.567,0-14.218,0c-3.068,0-6.121,0.438-7.925,4
		c-6.183,12.21-12.367,24.524-18.551,36.735c-6.185-12.21-12.368-24.368-18.552-36.578c-1.577-3.116-4.212-4.203-6.813-3.958
		c-2.602-0.245-5.235,0.881-6.813,3.997c-6.184,12.21-12.369,24.427-18.552,36.637C71.717,32.082,65.533,19.875,59.35,7.665
		c-1.578-3.115-4.211-4.227-6.813-3.982c-2.601-0.245-5.235,0.869-6.813,3.984C37.8,23.313,29.875,38.96,21.951,54.607
		c0,0-6.006,15.368-13.861,15.22c0.931,0.4,2.004,0.633,3.229,0.633c5.02,0,10.04,0,15.06,0c1.671,0,3.065-0.43,4.189-1.139
		c1.294-0.785,2.541-1.717,3.416-3.445c6.184-12.21,12.368-24.419,18.552-36.63c6.184,12.21,12.368,24.42,18.552,36.63
		c1.578,3.115,4.212,4.229,6.813,3.984c2.601,0.244,5.235-0.869,6.813-3.984c6.184-12.21,12.367-24.42,18.551-36.63
		c6.185,12.21,12.368,24.42,18.552,36.63c1.577,3.116,4.212,4.229,6.813,3.984c2.602,0.244,5.235-1.004,6.813-4.119
		c7.79-15.383,15.58-30.281,23.369-46.281c3.415,0,6.511,0,10.511,0C179.324,19.459,179.324,3.459,169.324,3.459z"/>
	<polygon display="inline" opacity="0.7" fill="#347A61" points="103.266,29.246 112.441,12.334 105.667,33.986 	"/>
	<polygon display="inline" opacity="0.7" fill="#347A61" points="52.537,29.246 61.712,12.334 54.938,33.986 	"/>
	<path display="inline" fill="#347A61" d="M21.951,54.459c-3.544,0-7.088,0-10.632,0c-8.999,0-10.072,12.278-3.229,15.22
		C15.945,69.828,21.951,54.459,21.951,54.459z"/>
	<path display="inline" fill="#347A61" d="M159.013,19.459c3.545,0,7.089,0,10.633,0c8.998,0,10.072-12.278,3.229-15.22
		C165.02,4.091,159.013,19.459,159.013,19.459z"/>
	<polygon display="inline" opacity="0.7" fill="#347A61" points="77.901,44.298 86.568,62.217 79.662,40.822 	"/>
	<polygon display="inline" opacity="0.7" fill="#347A61" points="128.631,44.298 137.297,62.217 130.391,40.822 	"/>
</g>
<g>
	<g>
		<path fill="#347A61" d="M8,38.09c11.497,0,22.994,0,34.491,0c0.709,0,1.214-0.467,1.446-1.101
			c3.285-8.989,6.57-17.978,9.854-26.966c-0.964,0-1.928,0-2.893,0c3.911,14.984,7.821,29.969,11.732,44.953
			c0.385,1.478,2.463,1.386,2.893,0c4.38-14.126,8.76-28.252,13.14-42.377c-0.964,0-1.928,0-2.893,0
			c2.972,18.308,5.943,36.616,8.916,54.925c0.246,1.514,2.537,1.354,2.893,0c4.067-15.467,8.135-30.934,12.202-46.4
			c-0.964,0-1.929,0-2.893,0c2.189,6.904,4.38,13.808,6.569,20.712c0.471,1.483,2.379,1.37,2.893,0
			c2.534-6.757,5.067-13.513,7.602-20.27c-0.964,0-1.929,0-2.893,0c3.41,9.307,6.82,18.615,10.23,27.922
			c0.51,1.393,2.408,1.46,2.893,0c2.815-8.483,5.632-16.965,8.447-25.448c-0.914,0.119-1.827,0.239-2.741,0.358
			c2.111,4.879,4.223,9.758,6.335,14.637c0.202,0.468,0.816,0.743,1.295,0.743c11.705,0.006,23.411,0.013,35.116,0.02
			c1.935,0.001,1.935-2.999,0-3c-9.423-0.005-18.847-0.01-28.27-0.016c-1.866-0.001-3.732-0.002-5.599-0.003
			c-0.403,0-0.808,0-1.211,0c1.438,0.001,1.4,1.072,0.548-0.898c-1.875-4.332-3.75-8.664-5.625-12.996
			c-0.558-1.29-2.378-0.738-2.741,0.358c-2.815,8.483-5.632,16.965-8.447,25.448c0.964,0,1.929,0,2.893,0
			c-3.41-9.307-6.82-18.615-10.23-27.922c-0.525-1.433-2.361-1.416-2.893,0c-2.534,6.757-5.067,13.513-7.602,20.27
			c0.964,0,1.929,0,2.893,0c-2.189-6.904-4.38-13.808-6.569-20.712c-0.438-1.38-2.503-1.482-2.893,0
			c-4.067,15.467-8.135,30.934-12.202,46.4c0.964,0,1.929,0,2.893,0c-2.972-18.308-5.943-36.616-8.916-54.925
			c-0.252-1.555-2.488-1.305-2.893,0c-4.38,14.126-8.76,28.252-13.14,42.377c0.964,0,1.928,0,2.893,0
			C61.613,39.194,57.703,24.21,53.792,9.226c-0.399-1.528-2.407-1.328-2.893,0c-3.285,8.989-6.57,17.978-9.854,26.966
			c0.482-0.367,0.964-0.734,1.446-1.101c-11.497,0-22.994,0-34.491,0C6.065,35.09,6.065,38.09,8,38.09L8,38.09z"/>
	</g>
</g>
</svg>
