<!--?xml version="1.0" encoding="utf-8"?-->
<!-- Generator: Adobe Illustrator 16.0.2, SVG Export Plug-In . SVG Version: 6.00 Build 0)  -->

<svg version="1.1" id="Layer_1" xmlns="http://www.w3.org/2000/svg" xmlns:xlink="http://www.w3.org/1999/xlink" x="0px" y="0px" width="599px" height="449px" viewBox="0 0 599 449" enable-background="new 0 0 599 449" xml:space="preserve" style="">
<g display="none">
	<path display="inline" d="M61.311,93.503l-26.855-7.45V43.714h171.631v42.339l-39.307,7.45L222.2,304.75l6.836,34.126l4.639-34.126
		l47.119-169.189L266.39,93.263l-29.297-7.21V43.714h179.932v42.339l-47.119,7.21l55.908,211.487l8.057,37.73l5.859-37.73
		l48.584-211.487l-38.818-7.21V43.714h122.559v42.339l-30.762,7.45l-88.379,321.792h-90.088l-58.594-205.475l-54.199,205.475h-89.6
		L61.311,93.503z" class="kpDVBUTa_0"></path>
</g>
<g>
	<path fill="#fff" d="M306.512,160.668L378.374,232.532L431.483,179.421L306.603,54.539L306.512,54.631L306.421,54.539L
		181.539,179.421L234.649,232.532Z" class="kpDVBUTa_1"></path>
	<path fill="#fff" d="M450.323,198.442L378.463,270.302L357.306,249.145L357.306,249.145L357.306,249.145
		306.603,198.442L306.512,198.533L306.421,198.442L244.408,260.455L244.408,260.454L234.561,270.302L162.7,198.442L109.589,251.553
		234.471,376.435L234.561,376.345L234.649,376.435L306.512,304.572L318.502,316.563L318.502,316.563L378.374,376.435
		378.463,376.345L378.553,376.435L503.435,251.553Z" class="kpDVBUTa_2"></path>
</g>
<style>.kpDVBUTa_0{stroke-dasharray:3242 3244;stroke-dashoffset:3243;animation:kpDVBUTa_draw_0 7200ms ease 0ms infinite,kpDVBUTa_fade 7200ms linear 0ms infinite;}.kpDVBUTa_1{stroke-dasharray:707 709;stroke-dashoffset:708;animation:kpDVBUTa_draw_1 7200ms ease 0ms infinite,kpDVBUTa_fade 7200ms linear 0ms infinite;}.kpDVBUTa_2{stroke-dasharray:1114 1116;stroke-dashoffset:1115;animation:kpDVBUTa_draw_2 7200ms ease 0ms infinite,kpDVBUTa_fade 7200ms linear 0ms infinite;}@keyframes kpDVBUTa_draw{100%{stroke-dashoffset:0;}}@keyframes kpDVBUTa_fade{0%{stroke-opacity:1;}94.44444444444444%{stroke-opacity:1;}100%{stroke-opacity:0;}}@keyframes kpDVBUTa_draw_0{11.11111111111111%{stroke-dashoffset: 3243}38.88888888888889%{ stroke-dashoffset: 0;}100%{ stroke-dashoffset: 0;}}@keyframes kpDVBUTa_draw_1{18.055555555555554%{stroke-dashoffset: 708}45.83333333333333%{ stroke-dashoffset: 0;}100%{ stroke-dashoffset: 0;}}@keyframes kpDVBUTa_draw_2{25%{stroke-dashoffset: 1115}52.77777777777778%{ stroke-dashoffset: 0;}100%{ stroke-dashoffset: 0;}}</style></svg>
