<?xml version="1.0" encoding="utf-8"?>
<!-- Generator: Adobe Illustrator 16.0.2, SVG Export Plug-In . SVG Version: 6.00 Build 0)  -->
<!DOCTYPE svg PUBLIC "-//W3C//DTD SVG 1.1//EN" "http://www.w3.org/Graphics/SVG/1.1/DTD/svg11.dtd">
<svg version="1.1" id="Layer_1" xmlns="http://www.w3.org/2000/svg" xmlns:xlink="http://www.w3.org/1999/xlink" x="0px" y="0px"
	 width="198.305px" height="204.237px" viewBox="0 0 198.305 204.237" enable-background="new 0 0 198.305 204.237"
	 xml:space="preserve">
<g display="none">
	<polygon display="inline" fill="#D82323" points="166.668,66.068 128.185,129.394 103.43,88.697 117.202,66.068 109.66,66.068 
		99.659,82.516 89.657,66.068 82.117,66.068 95.887,88.676 71.892,128.161 34.125,66.068 26.478,66.068 68.121,135.068 
		75.664,135.068 99.659,95.219 124.417,135.748 100.431,175.166 104.248,181.279 174.212,66.068 	"/>
	<path display="inline" fill="#D82323" d="M98.99,9.302c-51.756,0-93.712,41.958-93.712,93.712s41.956,93.713,93.712,93.713
		s93.712-41.958,93.712-93.713S150.746,9.302,98.99,9.302z M98.99,190.873c-48.522,0-87.858-39.336-87.858-87.858
		c0-48.523,39.336-87.859,87.858-87.859c48.524,0,87.859,39.336,87.859,87.859C186.849,151.537,147.514,190.873,98.99,190.873z"/>
</g>
<g>
	<circle fill="#D82323" cx="98.759" cy="101.942" r="85.259"/>
	<polygon fill="#FFFFFF" points="156.245,68.068 150.415,68.068 120.681,117.047 101.553,85.578 112.194,68.068 106.366,68.068 
		98.638,80.777 90.91,68.068 85.084,68.068 95.725,85.585 77.184,116.069 48.001,68.068 42.093,68.068 74.271,122.068 
		80.098,122.068 98.638,90.983 117.768,122.152 99.235,152.535 102.186,157.174 	"/>
</g>
</svg>
