<?xml version="1.0" encoding="utf-8"?>
<!-- Generator: Adobe Illustrator 16.0.2, SVG Export Plug-In . SVG Version: 6.00 Build 0)  -->
<!DOCTYPE svg PUBLIC "-//W3C//DTD SVG 1.1//EN" "http://www.w3.org/Graphics/SVG/1.1/DTD/svg11.dtd">
<svg version="1.1" id="Layer_1" xmlns="http://www.w3.org/2000/svg" xmlns:xlink="http://www.w3.org/1999/xlink" x="0px" y="0px"
	 width="500px" height="500px" viewBox="0 0 500 500" enable-background="new 0 0 500 500" xml:space="preserve">
<g>
	<polygon fill="#F7480B" points="396.875,207.612 250.107,60.841 250,60.949 249.893,60.841 103.122,207.612 165.542,270.032
		250,185.572 334.459,270.032 	"/>
	<polygon fill="#182B5B" points="481.439,292.387 419.02,229.968 334.563,314.424 250.107,229.968 250,230.074 249.893,229.968
		165.437,314.424 80.98,229.968 18.56,292.387 165.332,439.159 165.437,439.053 165.542,439.159 250,354.701 334.459,439.159
		334.563,439.053 334.67,439.159 	"/>
	<polygon fill="#C43C18" points="250,185.572 307.855,118.592 262.973,198.545 	"/>
	<polygon fill="#0B162B" points="250,354.701 309.697,289.556 264.092,368.794 	"/>
	<polygon fill="#0B162B" points="334.563,314.424 391.236,382.59 346.139,302.849 	"/>
	<polygon fill="#0B162B" points="165.437,314.424 225.954,378.744 177.011,302.849 	"/>
</g>
</svg>
