<?xml version="1.0" encoding="utf-8"?>
<!-- Generator: Adobe Illustrator 16.0.2, SVG Export Plug-In . SVG Version: 6.00 Build 0)  -->
<!DOCTYPE svg PUBLIC "-//W3C//DTD SVG 1.1//EN" "http://www.w3.org/Graphics/SVG/1.1/DTD/svg11.dtd">
<svg version="1.1" id="Layer_1" xmlns="http://www.w3.org/2000/svg" xmlns:xlink="http://www.w3.org/1999/xlink" x="0px" y="0px"
	 width="599px" height="449px" viewBox="0 0 599 449" enable-background="new 0 0 599 449" xml:space="preserve">
<g>
	<path fill="#999898" d="M61.311,370.873l-26.855-1.028V364h171.631v5.845l-39.307,1.028l55.42,29.162l6.836,4.711l4.639-4.711
		l47.119-23.355l-14.404-5.84l-29.297-0.995V364h179.932v5.845l-47.119,0.995l55.908,29.195l8.057,5.209l5.859-5.209l48.584-29.195
		l-38.818-0.995V364h122.559v5.845l-30.762,1.028l-88.379,44.423h-90.088l-58.594-28.365l-54.199,28.365h-89.6L61.311,370.873z"/>
</g>
<g display="none">
	<path display="inline" d="M61.311,93.503l-26.855-7.45V43.714h171.631v42.339l-39.307,7.45L222.2,304.75l6.836,34.126l4.639-34.126
		l47.119-169.189L266.39,93.263l-29.297-7.21V43.714h179.932v42.339l-47.119,7.21l55.908,211.487l8.057,37.73l5.859-37.73
		l48.584-211.487l-38.818-7.21V43.714h122.559v42.339l-30.762,7.45l-88.379,321.792h-90.088l-58.594-205.475l-54.199,205.475h-89.6
		L61.311,93.503z"/>
</g>
<g display="none">
	<polygon display="inline" fill="#0B162B" points="306.512,160.668 378.374,232.532 431.483,179.421 306.603,54.539 306.512,54.631 
		306.421,54.539 181.539,179.421 234.649,232.532 	"/>
	<polygon display="inline" fill="#0B162B" points="450.323,198.442 378.463,270.302 357.306,249.145 357.306,249.145 
		357.306,249.145 306.603,198.442 306.512,198.533 306.421,198.442 244.408,260.455 244.408,260.454 234.561,270.302 162.7,198.442 
		109.589,251.553 234.471,376.435 234.561,376.345 234.649,376.435 306.512,304.572 318.502,316.563 318.502,316.563 
		378.374,376.435 378.463,376.345 378.553,376.435 503.435,251.553 	"/>
</g>
</svg>
